Coordinates
version=1
nRows=4
nColumns=107
inDegrees=yes

Units are S.I. units (second, meters, Newtons, ...)
If the header above contains a line with 'inDegrees', this indicates whether rotational values are in degrees (yes) or radians (no).

endheader
time	sternoclavicular_r2	sternoclavicular_r3	unrotscap_r3	unrotscap_r2	acromioclavicular_r2	acromioclavicular_r3	acromioclavicular_r1	unrothum_r1	unrothum_r3	unrothum_r2	elv_angle	shoulder_elv	shoulder1_r2	shoulder_rot	elbow_flexion	pro_sup	deviation	flexion	proximal_distal_r1	proximal_distal_r3	cmc_flexion	cmc_abduction	mp_flexion	ip_flexion	mcp2_flexion	mcp2_abduction	pm2_flexion	md2_flexion	mcp3_flexion	mcp3_abduction	pm3_flexion	md3_flexion	mcp4_flexion	mcp4_abduction	pm4_flexion	md4_flexion	mcp5_flexion	mcp5_abduction	pm5_flexion	md5_flexion	bicpt_tx	bicpt_ty	bicpt_tz	bicpt2_tx	bicpt2_ty	bicpt2_tz	ptpt_tx	ptpt_ty	ptpt_tz	FCUpt_tx	FCUpt_ty	FCUpt_tz	EDCpt_tx	EDCpt_ty	EDCpt_tz	APLpt_tx	APLpt_ty	APLpt_tz	FPLpt_tx	FPLpt_ty	FPLpt_tz	FPLpt2_tx	FPLpt2_ty	FPLpt2_tz	PEC1pt2_tx	PEC1pt2_ty	PEC1pt2_tz	PEC1pt3_tx	PEC1pt3_ty	PEC1pt3_tz	PEC2pt2_tx	PEC2pt2_ty	PEC2pt2_tz	PEC2pt3_tx	PEC2pt3_ty	PEC2pt3_tz	PEC3pt2_tx	PEC3pt2_ty	PEC3pt2_tz	PEC3pt3_tx	PEC3pt3_ty	PEC3pt3_tz	DELT2pt2a_tx	DELT2pt2a_ty	DELT2pt2a_tz	DELT2pt2_tx	DELT2pt2_ty	DELT2pt2_tz	LAT1pt2_tx	LAT1pt2_ty	LAT1pt2_tz	LAT1pt3_tx	LAT1pt3_ty	LAT1pt3_tz	LAT2pt2_tx	LAT2pt2_ty	LAT2pt2_tz	LAT2pt3_tx	LAT2pt3_ty	LAT2pt3_tz	LAT3pt2_tx	LAT3pt2_ty	LAT3pt2_tz	LAT3pt3_tx	LAT3pt3_ty	LAT3pt3_tz
      0.00000000	     -0.33286146	      0.14098440	     -0.14098440	      0.33286146	     -0.06739767	      0.54468429	      0.24483184	     -0.24483184	     -0.54468429	      0.06739767	     96.76875793	     78.80790848	     -1.68893344	    -11.71692543	     29.68624952	     37.30564328	      0.26469839	     -0.51943628	      0.30188417	     -0.25971814	     18.04855932	    -11.59502035	    -26.43133772	     -6.43878397	     12.93874583	      7.77949197	     35.97787273	     -0.58415379	     25.87955517	      1.95750848	     17.90748232	     18.00570810	     26.29110385	     -7.03822772	     22.76379515	     25.88913632	     22.88594473	    -13.47615010	     30.86028687	      5.26403203	      0.00088193	     -0.03100250	     -0.00484805	      0.01656111	     -0.01826442	     -0.00775259	      0.00479353	     -0.06668238	     -0.00305517	      0.00751009	     -0.18355009	     -0.00036457	     -0.00447667	      0.00127175	      0.00016381	      0.00030550	      0.00012220	      0.00061100	      0.00039104	      0.00117312	      0.00065988	      0.00001663	     -0.00027029	     -0.00032435	      0.00258315	      0.00906292	      0.00630464	     -0.00844997	      0.02040251	     -0.01935174	      0.00258315	      0.00906292	      0.00630464	      0.00056917	      0.01891391	     -0.00993856	      0.00404663	      0.00503977	      0.01620379	      0.00000000	      0.00831011	      0.00000000	     -0.00739919	     -0.03419390	     -0.00685488	      0.00853765	     -0.00019224	     -0.00099916	     -0.00091943	      0.01541134	     -0.00630464	      0.00253937	      0.02224136	     -0.01838853	     -0.00617329	      0.01335357	     -0.00564790	     -0.01287197	      0.02819574	     -0.03156697	     -0.02416778	      0.01492973	     -0.00757432	     -0.01602429	      0.03257396	     -0.03944777
      0.03333333	     -0.33073901	      0.14008544	     -0.14008544	      0.33073901	     -0.06696792	      0.54121119	      0.24327071	     -0.24327071	     -0.54121119	      0.06696792	     97.13595792	     78.30540094	     -1.69534229	    -13.89791794	     29.68561993	     39.55357709	      0.25199857	     -0.52768963	      0.29001967	     -0.26384482	     18.57107585	    -11.87179185	    -27.05664605	     -6.99504101	     12.55040595	      7.75884455	     36.78361737	     -1.40511168	     25.71704201	      2.06191680	     18.07056580	     18.07893214	     26.24944456	     -7.04434356	     22.94437469	     26.37813528	     23.34000791	    -13.38323784	     30.42410189	      5.35139209	      0.00088191	     -0.03100243	     -0.00484804	      0.01657337	     -0.01826424	     -0.00751756	      0.00462744	     -0.06678978	     -0.00323625	      0.00773532	     -0.18350433	     -0.00038318	     -0.00474642	      0.00136211	      0.00014958	      0.00030671	      0.00012268	      0.00061342	      0.00039259	      0.00117776	      0.00066249	      0.00001534	     -0.00027269	     -0.00032723	      0.00256668	      0.00900513	      0.00626444	     -0.00839609	      0.02027242	     -0.01922834	      0.00256668	      0.00900513	      0.00626444	      0.00056554	      0.01879331	     -0.00987519	      0.00402805	      0.00500764	      0.01616012	      0.00000000	      0.00820367	      0.00000000	     -0.00735201	     -0.03397587	     -0.00676658	      0.01000605	     -0.00025235	     -0.00148773	     -0.00091356	      0.01531307	     -0.00626444	      0.00252318	      0.02209954	     -0.01827128	     -0.00613393	      0.01326843	     -0.00561189	     -0.01278989	      0.02801596	     -0.03136569	     -0.02401368	      0.01483454	     -0.00752603	     -0.01592211	      0.03236626	     -0.03919624
      0.06666667	     -0.32957660	      0.13959309	     -0.13959309	      0.32957660	     -0.06673256	      0.53930905	      0.24241571	     -0.24241571	     -0.53930905	      0.06673256	     97.32466093	     78.03018910	     -1.69863578	    -15.12593776	     29.78279781	     41.06519024	      0.25147533	     -0.51434812	      0.28952522	     -0.25717406	     18.30016278	    -12.23482344	    -25.57594684	     -9.25896095	     12.14477813	      8.06264476	     38.03932670	     -2.73086886	     25.61200557	      2.21041791	     18.08178752	     18.81554346	     26.29020954	     -6.81540693	     22.52280624	     28.38897815	     23.19599883	    -13.33666035	     31.25188343	      5.31914154	      0.00088512	     -0.03101356	     -0.00484984	      0.01657510	     -0.01829064	     -0.00735553	      0.00451575	     -0.06686200	     -0.00335802	      0.00788765	     -0.18347274	     -0.00039355	     -0.00492781	      0.00142375	      0.00013847	      0.00030470	      0.00012188	      0.00060941	      0.00039002	      0.00117006	      0.00065816	      0.00001601	     -0.00027146	     -0.00032575	      0.00255766	      0.00897348	      0.00624242	     -0.00836658	      0.02020117	     -0.01916076	      0.00255766	      0.00897348	      0.00624242	      0.00056355	      0.01872726	     -0.00984048	      0.00401783	      0.00499004	      0.01613595	      0.00000000	      0.00814567	      0.00000000	     -0.00732617	     -0.03385646	     -0.00671846	      0.01080481	     -0.00028718	     -0.00180082	     -0.00091035	      0.01525925	     -0.00624242	      0.00251431	      0.02202187	     -0.01820706	     -0.00611237	      0.01322179	     -0.00559217	     -0.01274494	      0.02791749	     -0.03125545	     -0.02392928	      0.01478240	     -0.00749957	     -0.01586615	      0.03225251	     -0.03905848
      0.10000000	     -0.32841406	      0.13910070	     -0.13910070	      0.32841406	     -0.06649717	      0.53740671	      0.24156062	     -0.24156062	     -0.53740671	      0.06649717	     97.35113296	     77.75494805	     -1.69909780	    -16.26023669	     30.21971745	     42.13772230	      0.24429493	     -0.48268481	      0.28269410	     -0.24134241	     16.29019348	    -13.00672245	    -21.73600291	    -13.05667337	     10.81201045	      7.58126323	     38.49699358	     -3.66857862	     22.67170722	      2.15901317	     20.51674464	     22.57624567	     24.77139574	     -6.83389235	     21.57392966	     32.07499102	     21.66033305	    -13.43119695	     30.73925574	      5.50143230	      0.00089957	     -0.03106364	     -0.00485790	      0.01657353	     -0.01840933	     -0.00723884	      0.00443650	     -0.06691324	     -0.00344442	      0.00799612	     -0.18344999	     -0.00039999	     -0.00505651	      0.00146786	      0.00012992	      0.00029885	      0.00011954	      0.00059770	      0.00038253	      0.00114758	      0.00064552	      0.00002085	     -0.00026001	     -0.00031201	      0.00254864	      0.00894183	      0.00622040	     -0.00833707	      0.02012991	     -0.01909318	      0.00254864	      0.00894183	      0.00622040	      0.00056156	      0.01866120	     -0.00980577	      0.00400759	      0.00497244	      0.01611160	      0.00000000	      0.00808788	      0.00000000	     -0.00730033	     -0.03373704	     -0.00667050	      0.01152471	     -0.00031995	     -0.00211355	     -0.00090714	      0.01520542	     -0.00622040	      0.00250544	      0.02194419	     -0.01814284	     -0.00609081	      0.01317516	     -0.00557244	     -0.01269999	      0.02781902	     -0.03114520	     -0.02384487	      0.01473026	     -0.00747312	     -0.01581019	      0.03213874	     -0.03892070
